{"accessors" : [{"bufferView" : 0, "byteOffset" : 0, "componentType" : 5123, "count" : 36702, "type" : "SCALAR", "max" : [7694], "min" : [0]}, {"bufferView" : 1, "byteOffset" : 0, "componentType" : 5126, "count" : 7695, "type" : "VEC3", "max" : [1.724367618560791, 0.18357421457767487, 0.8888744711875916], "min" : [-0.14002454280853271, -1.4490153789520264, -0.3278588652610779], "name" : "POSITION"}, {"bufferView" : 1, "byteOffset" : 12, "componentType" : 5126, "count" : 7695, "type" : "VEC3", "max" : [0.9996768832206726, 0.9996225237846375, 0.9998876452445984], "min" : [-0.9997944831848145, -0.9987258315086365, -0.9999135136604309], "name" : "NORMAL"}, {"bufferView" : 1, "byteOffset" : 24, "componentType" : 5126, "count" : 7695, "type" : "VEC2", "max" : [0.9982738494873047, 0.9982699751853943], "min" : [0.0017322938656434417, 0.03814011812210083], "name" : "TEXCOORD_0"}], "asset" : {"generator" : "Aspose.3D 24.6.0", "version" : "2.0"}, "buffers" : [{"uri" : "data:application/octet-stream;base64,", "byteLength" : 319652}], "bufferViews" : [{"buffer" : 0, "byteOffset" : 0, "byteLength" : 73404, "target" : 34963}, {"buffer" : 0, "byteOffset" : 73408, "byteLength" : 246240, "byteStride" : 32, "target" : 34962}], "materials" : [{"name" : "Cartoon.001", "pbrMetallicRoughness" : {"baseColorFactor" : [0.800000011920929, 0.800000011920929, 0.800000011920929, 1], "metallicFactor" : 1, "roughnessFactor" : 1}, "emissiveFactor" : [0, 0, 0], "alphaMode" : "OPAQUE", "doubleSided" : false}], "meshes" : [{"primitives" : [{"attributes" : {"POSITION" : 1, "NORMAL" : 2, "TEXCOORD_0" : 3}, "indices" : 0, "material" : 0, "mode" : 4}], "name" : "mesh"}], "nodes" : [{"matrix" : [100, 0, 0, 0, 0, -2.821299691034212E-05, -99.99999999999602, 0, 0, 99.99999999999602, -2.821299691034212E-05, 0, 0, 29.86994743347168, 0, 1], "mesh" : 0, "name" : "Retopo_BzierCurve"}], "scene" : 0, "scenes" : [{"nodes" : [0]}]}