{
  "accessors": [
    {
      "bufferView": 2,
      "componentType": 5126,
      "count": 5911,
      "max": [
        0.9276300072669983,
        0.1587280035018921,
        2.2510480880737305
      ],
      "min": [
        -0.9276300072669983,
        -0.9315320253372192,
        -0.04501299932599068
      ],
      "type": "VEC3"
    },
    {
      "bufferView": 2,
      "byteOffset": 70932,
      "componentType": 5126,
      "count": 5911,
      "max": [
        0.9998436570167542,
        0.9999995231628418,
        0.9997302889823914
      ],
      "min": [
        -0.9998436570167542,
        -0.999997615814209,
        -0.9999778270721436
      ],
      "type": "VEC3"
    },
    {
      "bufferView": 3,
      "componentType": 5126,
      "count": 5911,
      "max": [
        0.9999935030937195,
        0.999771773815155,
        0.9999995827674866,
        1.0
      ],
      "min": [
        -0.999626636505127,
        -0.9983925819396973,
        -0.9999976754188538,
        -1.0
      ],
      "type": "VEC4"
    },
    {
      "bufferView": 1,
      "componentType": 5126,
      "count": 5911,
      "max": [
        0.9922099709510803,
        0.9907960295677185
      ],
      "min": [
        0.0025059999898076057,
        0.01306500006467104
      ],
      "type": "VEC2"
    },
    {
      "bufferView": 0,
      "componentType": 5125,
      "count": 31992,
      "type": "SCALAR"
    }
  ],
  "asset": {
    "extras": {
      "author": "Snapped Celery (https://sketchfab.com/snappedcelery)",
      "license": "CC-BY-NC-4.0 (http://creativecommons.org/licenses/by-nc/4.0/)",
      "source": "https://sketchfab.com/3d-models/trump-in-speedos-free-62ab2e16d0b44bf4bfa070ea50f97000",
      "title": "Trump in speedos - Free"
    },
    "generator": "Sketchfab-16.54.0",
    "version": "2.0"
  },
  "bufferViews": [
    {
      "buffer": 0,
      "byteLength": 127968,
      "name": "floatBufferViews",
      "target": 34963
    },
    {
      "buffer": 0,
      "byteLength": 47288,
      "byteOffset": 127968,
      "byteStride": 8,
      "name": "floatBufferViews",
      "target": 34962
    },
    {
      "buffer": 0,
      "byteLength": 141864,
      "byteOffset": 175256,
      "byteStride": 12,
      "name": "floatBufferViews",
      "target": 34962
    },
    {
      "buffer": 0,
      "byteLength": 94576,
      "byteOffset": 317120,
      "byteStride": 16,
      "name": "floatBufferViews",
      "target": 34962
    }
  ],
  "buffers": [
    {
      "byteLength": 411696,
      "uri": "scene.bin"
    }
  ],
  "extensionsRequired": [
    "KHR_materials_pbrSpecularGlossiness"
  ],
  "extensionsUsed": [
    "KHR_materials_pbrSpecularGlossiness"
  ],
  "images": [
    {
      "uri": "textures/Trump.002_diffuse.png"
    },
    {
      "uri": "textures/Trump.002_normal.png"
    },
    {
      "uri": "textures/Trump.002_occlusion.png"
    }
  ],
  "materials": [
    {
      "doubleSided": true,
      "extensions": {
        "KHR_materials_pbrSpecularGlossiness": {
          "diffuseFactor": [
            1.0,
            1.0,
            1.0,
            1.0
          ],
          "diffuseTexture": {
            "index": 0
          },
          "glossinessFactor": 0.5235097658640648,
          "specularFactor": [
            0.016028723472462654,
            0.016028723472462654,
            0.016028723472462654
          ]
        }
      },
      "name": "Trump.002",
      "normalTexture": {
        "index": 1
      },
      "occlusionTexture": {
        "index": 2
      }
    }
  ],
  "meshes": [
    {
      "name": "Object_0",
      "primitives": [
        {
          "attributes": {
            "NORMAL": 1,
            "POSITION": 0,
            "TANGENT": 2,
            "TEXCOORD_0": 3
          },
          "indices": 4,
          "material": 0,
          "mode": 4
        }
      ]
    }
  ],
  "nodes": [
    {
      "children": [
        1
      ],
      "matrix": [
        1.0,
        0.0,
        0.0,
        0.0,
        0.0,
        2.220446049250313e-16,
        -1.0,
        0.0,
        0.0,
        1.0,
        2.220446049250313e-16,
        0.0,
        0.0,
        0.0,
        0.0,
        1.0
      ],
      "name": "Sketchfab_model"
    },
    {
      "children": [
        2
      ],
      "name": "Trump_again.obj.cleaner.materialmerger.gles"
    },
    {
      "mesh": 0,
      "name": "Object_2"
    }
  ],
  "samplers": [
    {
      "magFilter": 9729,
      "minFilter": 9987,
      "wrapS": 10497,
      "wrapT": 10497
    }
  ],
  "scene": 0,
  "scenes": [
    {
      "name": "Sketchfab_Scene",
      "nodes": [
        0
      ]
    }
  ],
  "textures": [
    {
      "sampler": 0,
      "source": 0
    },
    {
      "sampler": 0,
      "source": 1
    },
    {
      "sampler": 0,
      "source": 2
    }
  ]
}
